<?xml version="1.0" encoding="iso-8859-1"?>
<!-- Uploaded to: SVG Repo, www.svgrepo.com, Generator: SVG Repo Mixer Tools -->
<svg height="800px" width="800px" version="1.1" id="Layer_1" xmlns="http://www.w3.org/2000/svg" xmlns:xlink="http://www.w3.org/1999/xlink" 
	 viewBox="0 0 512.112 512.112" xml:space="preserve">
<g>
	<path style="fill:#FFE100;" d="M290.189,111.045c0,18.773-15.36,34.133-34.133,34.133s-34.133-15.36-34.133-34.133
		s15.36-34.133,34.133-34.133S290.189,92.272,290.189,111.045"/>
	<path style="fill:#FFE100;" d="M230.456,187.845c0,0-133.12-136.533-162.133-136.533c0,0-51.2,7.68-51.2,51.2
		c0,0-2.56,86.187,59.733,128c0,0,41.813,36.693,110.08,41.813c1.707,0,1.707,2.56,0,2.56
		c-47.787,7.68-178.347,34.987-178.347,117.76c0,0-1.707,46.08,22.187,83.627c17.92,28.16,55.467,35.84,83.627,17.067
		c25.6-17.92,64-52.053,116.053-117.76V187.845z"/>
	<path style="fill:#FFE100;" d="M281.656,187.845c0,0,133.12-136.533,162.133-136.533c0,0,51.2,7.68,51.2,51.2
		c0,0,2.56,86.187-59.733,128c0,0-41.813,36.693-110.08,41.813c-1.707,0-1.707,2.56,0,2.56
		c47.787,7.68,178.347,34.987,178.347,117.76c0,0,1.707,46.08-22.187,83.627c-17.92,28.16-55.467,35.84-83.627,17.067
		c-25.6-17.92-64-52.053-116.907-117.76V187.845H281.656z"/>
</g>
<path style="fill:#FFA800;" d="M503.523,392.645c0-82.773-130.56-110.08-178.347-116.907c-1.707,0-1.707-2.56,0-2.56
	c68.267-6.827,110.08-42.667,110.08-42.667c62.293-41.813,59.733-128,59.733-128c0-43.52-51.2-51.2-51.2-51.2
	c-2.56,0-6.827,1.707-11.947,4.267c15.36,5.12,37.547,17.92,37.547,46.933c0,0,2.56,86.187-59.733,128
	c0,0-41.813,36.693-110.08,41.813c-1.707,0-1.707,2.56,0,2.56c47.787,7.68,178.347,34.987,178.347,117.76
	c0,0,1.707,46.08-22.187,83.627c-8.533,13.653-22.187,22.187-36.693,25.6c23.04,5.12,48.64-4.267,62.293-25.6
	C505.229,438.725,503.523,392.645,503.523,392.645"/>
<path style="fill:#FFFFFF;" d="M7.736,392.645c0-82.773,130.56-110.08,178.347-116.907c1.707,0,1.707-2.56,0-2.56
	c-68.267-6.827-110.08-42.667-110.08-42.667c-61.44-41.813-59.733-128-59.733-128c0-43.52,51.2-51.2,51.2-51.2
	c2.56,0,6.827,1.707,11.947,4.267c-15.36,5.12-37.547,17.92-37.547,46.933c0,0-2.56,86.187,59.733,128
	c0,0,41.813,36.693,110.08,41.813c1.707,0,1.707,2.56,0,2.56c-47.787,6.827-178.347,34.133-178.347,116.907
	c0,0-1.707,46.08,22.187,83.627c8.533,13.653,22.187,22.187,36.693,25.6c-23.04,5.12-48.64-4.267-62.293-25.6
	C6.029,438.725,7.736,392.645,7.736,392.645"/>
<path style="fill:#FFE100;" d="M256.056,145.178c-8.533,0-16.213-3.413-22.187-8.533h-3.413v264.533c0,14.507,11.093,25.6,25.6,25.6
	s25.6-11.093,25.6-25.6V136.645h-3.413C272.269,141.765,264.589,145.178,256.056,145.178"/>
<path style="fill:#63D3FD;" d="M128.056,401.178c0,18.773-15.36,34.133-34.133,34.133s-34.133-15.36-34.133-34.133
	s15.36-34.133,34.133-34.133S128.056,382.405,128.056,401.178"/>
<path style="fill:#3DB9F9;" d="M93.923,367.045c-4.267,0-8.533,0.853-12.8,2.56c12.8,5.12,21.333,17.067,21.333,31.573
	s-8.533,26.453-21.333,31.573c4.267,1.707,8.533,2.56,12.8,2.56c18.773,0,34.133-15.36,34.133-34.133
	S112.696,367.045,93.923,367.045"/>
<path style="fill:#63D3FD;" d="M119.523,153.712c0,14.507-11.093,25.6-25.6,25.6s-25.6-11.093-25.6-25.6s11.093-25.6,25.6-25.6
	S119.523,139.205,119.523,153.712"/>
<path style="fill:#3DB9F9;" d="M93.923,128.112c-3.413,0-5.973,0.853-8.533,1.707c10.24,3.413,17.067,12.8,17.067,23.893
	s-6.827,20.48-17.067,23.893c2.56,0.853,5.12,1.707,8.533,1.707c14.507,0,25.6-11.093,25.6-25.6S108.429,128.112,93.923,128.112"/>
<path style="fill:#63D3FD;" d="M452.323,401.178c0,18.773-15.36,34.133-34.133,34.133s-34.133-15.36-34.133-34.133
	s15.36-34.133,34.133-34.133S452.323,382.405,452.323,401.178"/>
<path style="fill:#3DB9F9;" d="M418.189,367.045c-4.267,0-8.533,0.853-12.8,2.56c12.8,5.12,21.333,17.067,21.333,31.573
	s-8.533,26.453-21.333,31.573c4.267,1.707,8.533,2.56,12.8,2.56c18.773,0,34.133-15.36,34.133-34.133
	S436.963,367.045,418.189,367.045"/>
<path style="fill:#63D3FD;" d="M443.789,153.712c0,14.507-11.093,25.6-25.6,25.6c-14.507,0-25.6-11.093-25.6-25.6
	s11.093-25.6,25.6-25.6C432.696,128.112,443.789,139.205,443.789,153.712"/>
<path style="fill:#3DB9F9;" d="M418.189,128.112c-3.413,0-5.973,0.853-8.533,1.707c10.24,3.413,17.067,12.8,17.067,23.893
	s-6.827,20.48-17.067,23.893c2.56,0.853,5.12,1.707,8.533,1.707c14.507,0,25.6-11.093,25.6-25.6S432.696,128.112,418.189,128.112"/>
<path d="M80.269,512.112L80.269,512.112c-23.04,0-44.373-11.947-57.173-31.573c-24.747-39.253-23.04-86.187-23.04-87.893
	c0-71.68,85.333-104.107,147.627-117.76c-44.373-11.947-71.68-33.28-75.947-36.693C6.882,192.965,8.589,105.925,8.589,102.512
	c0-40.107,38.4-56.32,58.88-59.733h0.853c29.867,0,136.533,106.667,168.107,139.093c1.707,1.707,2.56,3.413,2.56,5.973v187.733
	c0,1.707-0.853,4.267-1.707,5.12c-45.227,56.32-85.333,96.427-118.613,119.467C107.576,507.845,93.923,512.112,80.269,512.112z
	 M69.176,59.845c-5.973,0.853-43.52,8.533-43.52,42.667c0,0.853-0.853,81.92,56.32,121.173c0,0,0.853,0,0.853,0.853
	c0,0,40.96,34.987,104.96,40.107c5.12,0,9.387,4.267,9.387,9.387c0,5.12-3.413,9.387-8.533,10.24
	c-40.107,5.12-171.52,30.72-171.52,108.373c0,0.853-1.707,44.373,20.48,79.36c9.387,14.507,25.6,23.04,42.667,23.04l0,0
	c10.24,0,20.48-3.413,29.013-9.387c31.573-21.333,69.12-59.733,112.64-113.493V191.258C160.482,128.112,85.389,61.552,69.176,59.845
	z"/>
<path d="M431.842,512.112c-13.653,0-27.307-4.267-38.4-11.947c-33.28-23.04-73.387-63.147-118.613-119.467
	c-0.853-1.707-1.707-3.413-1.707-5.12V187.845c0-2.56,0.853-4.267,2.56-5.973c31.573-32.427,138.24-139.093,168.107-139.093h0.853
	c20.48,2.56,58.88,19.627,58.88,59.733c0,3.413,1.707,90.453-63.147,134.827c-4.267,3.413-30.72,24.747-75.947,36.693
	c62.293,14.507,147.627,46.933,147.627,118.613c0,1.707,1.707,48.64-23.04,87.893C476.216,500.165,454.883,512.112,431.842,512.112z
	 M290.189,372.165c43.52,53.76,81.067,92.16,112.64,113.493c8.533,5.973,18.773,9.387,29.013,9.387
	c17.067,0,33.28-8.533,42.667-23.04c22.187-34.987,20.48-78.507,20.48-78.507c0-77.653-131.413-103.253-171.52-109.227
	c-5.12-0.853-8.533-5.12-8.533-10.24c0-5.12,4.267-9.387,9.387-9.387c64.853-5.12,104.96-39.253,104.96-40.107l0.853-0.853
	c57.173-39.253,56.32-120.32,56.32-121.173c0-34.133-37.547-41.813-43.52-42.667c-16.213,1.707-91.307,68.267-152.747,131.413
	V372.165z"/>
<path d="M238.989,85.445c-4.267,0-7.68-3.413-8.533-7.68c0-0.853-9.387-63.147-41.813-60.587c-4.267,0-8.533-3.413-9.387-7.68
	c0-5.12,3.413-8.533,7.68-9.387c48.64-3.413,59.733,72.533,60.587,75.947c0.853,4.267-2.56,9.387-7.68,9.387H238.989z"/>
<path d="M273.122,85.445h-0.853c-4.267-0.853-7.68-5.12-7.68-9.387c0.853-3.413,11.093-78.507,60.587-75.947
	c5.12,0,8.533,4.267,7.68,9.387c0,5.12-4.267,8.533-9.387,7.68c-32.427-2.56-41.813,60.587-41.813,60.587
	C280.803,82.032,277.389,85.445,273.122,85.445z"/>
<path d="M256.056,153.712c-23.893,0-42.667-18.773-42.667-42.667s18.773-42.667,42.667-42.667s42.667,18.773,42.667,42.667
	S279.949,153.712,256.056,153.712z M256.056,85.445c-14.507,0-25.6,11.093-25.6,25.6s11.093,25.6,25.6,25.6s25.6-11.093,25.6-25.6
	S270.563,85.445,256.056,85.445z"/>
<path d="M256.056,435.312c-18.773,0-34.133-15.36-34.133-34.133V136.645c0-5.12,3.413-8.533,8.533-8.533h3.413
	c1.707,0,4.267,0.853,5.973,1.707c3.413,2.56,9.387,6.827,17.067,6.827s13.653-3.413,17.067-6.827
	c1.707-1.707,3.413-1.707,5.973-1.707h1.707c5.12,0,8.533,3.413,8.533,8.533v264.533
	C290.189,419.952,274.829,435.312,256.056,435.312z M238.989,150.298v250.88c0,9.387,7.68,17.067,17.067,17.067
	c9.387,0,17.067-7.68,17.067-17.067v-250.88C262.029,154.565,250.083,154.565,238.989,150.298z"/>
<path d="M93.923,443.845c-23.893,0-42.667-18.773-42.667-42.667c0-23.893,18.773-42.667,42.667-42.667s42.667,18.773,42.667,42.667
	C136.589,425.072,117.816,443.845,93.923,443.845z M93.923,375.578c-14.507,0-25.6,11.093-25.6,25.6s11.093,25.6,25.6,25.6
	s25.6-11.093,25.6-25.6S108.429,375.578,93.923,375.578z"/>
<path d="M418.189,443.845c-23.893,0-42.667-18.773-42.667-42.667c0-23.893,18.773-42.667,42.667-42.667
	c23.893,0,42.667,18.773,42.667,42.667C460.856,425.072,442.083,443.845,418.189,443.845z M418.189,375.578
	c-14.507,0-25.6,11.093-25.6,25.6s11.093,25.6,25.6,25.6c14.507,0,25.6-11.093,25.6-25.6S432.696,375.578,418.189,375.578z"/>
<path d="M93.923,187.845c-18.773,0-34.133-15.36-34.133-34.133s15.36-34.133,34.133-34.133s34.133,15.36,34.133,34.133
	S112.696,187.845,93.923,187.845z M93.923,136.645c-9.387,0-17.067,7.68-17.067,17.067s7.68,17.067,17.067,17.067
	s17.067-7.68,17.067-17.067S103.309,136.645,93.923,136.645z"/>
<path d="M418.189,187.845c-18.773,0-34.133-15.36-34.133-34.133s15.36-34.133,34.133-34.133s34.133,15.36,34.133,34.133
	S436.963,187.845,418.189,187.845z M418.189,136.645c-9.387,0-17.067,7.68-17.067,17.067s7.68,17.067,17.067,17.067
	s17.067-7.68,17.067-17.067S427.576,136.645,418.189,136.645z"/>
</svg>