<?xml version="1.0" encoding="iso-8859-1"?>
<!-- Uploaded to: SVG Repo, www.svgrepo.com, Generator: SVG Repo Mixer Tools -->
<svg version="1.1" id="Layer_1" xmlns="http://www.w3.org/2000/svg" xmlns:xlink="http://www.w3.org/1999/xlink" 
	 viewBox="0 0 512.002 512.002" xml:space="preserve">
<rect x="7.878" y="216.92" style="fill:#B2E763;" width="496.245" height="79.099"/>
<rect x="7.878" y="215.985" style="fill:#00BA94;" width="496.245" height="40.022"/>
<path style="fill:#F92423;" d="M483.853,244.36h-19.082c-1.689,0-2.536-2.043-1.34-3.238l13.493-13.493
	c4.1-4.101,5.099-10.704,1.71-15.41c-4.318-5.997-12.735-6.494-17.734-1.495l-13.933,13.933c-1.194,1.195-3.237,0.349-3.237-1.34
	v-19.083c0-5.799-3.962-11.174-9.686-12.105c-7.294-1.186-13.597,4.412-13.597,11.483v19.704c0,1.689-2.043,2.536-3.237,1.34
	l-13.494-13.493c-4.101-4.1-10.703-5.099-15.409-1.71c-5.996,4.318-6.494,12.735-1.495,17.735l13.933,13.933
	c1.195,1.194,0.349,3.238-1.34,3.238h-19.082c-5.8,0-11.175,3.962-12.106,9.686c-1.186,7.294,4.412,13.597,11.483,13.597h19.704
	c1.689,0,2.536,2.043,1.34,3.237l-13.493,13.493c-4.101,4.1-5.099,10.704-1.71,15.409c4.318,5.996,12.735,6.495,17.735,1.495
	l13.933-13.933c1.194-1.194,3.238-0.348,3.238,1.341v19.082c0,5.8,3.962,11.175,9.686,12.106
	c7.294,1.186,13.597-4.412,13.597-11.483v-19.703c0-1.689,2.043-2.536,3.237-1.341l13.492,13.492
	c4.101,4.101,10.703,5.1,15.41,1.711c5.996-4.318,6.495-12.735,1.496-17.735l-13.933-13.933c-1.194-1.194-0.348-3.237,1.34-3.237
	h19.704c7.071,0,12.668-6.303,11.483-13.597C495.027,248.323,489.653,244.36,483.853,244.36z"/>
<circle style="fill:#FFFFFF;" cx="432.083" cy="256.008" r="11.639"/>
<path style="fill:#F92423;" d="M131.68,244.36h-19.082c-1.689,0-2.536-2.043-1.34-3.238l13.493-13.493
	c4.1-4.101,5.099-10.704,1.709-15.41c-4.318-5.997-12.735-6.494-17.734-1.495l-13.933,13.933c-1.194,1.195-3.238,0.349-3.238-1.34
	v-19.083c0-5.799-3.962-11.174-9.686-12.105c-7.294-1.186-13.597,4.412-13.597,11.483v19.704c0,1.689-2.043,2.536-3.238,1.34
	l-13.494-13.493c-4.101-4.1-10.703-5.099-15.409-1.71c-5.996,4.318-6.494,12.735-1.495,17.735l13.933,13.933
	c1.194,1.194,0.349,3.238-1.34,3.238H28.148c-5.8,0-11.175,3.962-12.105,9.686c-1.186,7.294,4.412,13.597,11.483,13.597h19.703
	c1.689,0,2.536,2.043,1.34,3.237l-13.493,13.493c-4.1,4.1-5.099,10.704-1.71,15.409c4.319,5.996,12.735,6.495,17.735,1.495
	l13.933-13.933c1.194-1.194,3.238-0.348,3.238,1.341v19.082c0,5.8,3.962,11.175,9.686,12.106
	c7.294,1.186,13.597-4.412,13.597-11.483v-19.703c0-1.689,2.043-2.536,3.237-1.341l13.492,13.492
	c4.101,4.101,10.704,5.1,15.41,1.711c5.997-4.318,6.495-12.735,1.496-17.735l-13.933-13.933c-1.195-1.194-0.348-3.237,1.34-3.237
	h19.704c7.071,0,12.668-6.303,11.483-13.597C142.854,248.323,137.479,244.36,131.68,244.36z"/>
<circle style="fill:#FFFFFF;" cx="79.919" cy="256.008" r="11.639"/>
<path id="SVGCleanerId_0" style="fill:#FE702D;" d="M327.179,239.995h-26.238c-2.323,0-3.486-2.809-1.844-4.452l18.553-18.552
	c5.638-5.639,7.012-14.718,2.351-21.189c-5.938-8.245-17.51-8.93-24.384-2.056l-19.158,19.158c-1.643,1.643-4.452,0.479-4.452-1.844
	v-26.237c0-7.974-5.449-15.364-13.32-16.645c-10.029-1.632-18.696,6.066-18.696,15.788v27.094c0,2.323-2.809,3.486-4.452,1.844
	l-18.553-18.553c-5.639-5.639-14.717-7.012-21.187-2.352c-8.245,5.939-8.931,17.51-2.057,24.385l19.158,19.158
	c1.643,1.643,0.479,4.452-1.844,4.452H184.82c-7.973,0-15.365,5.449-16.645,13.32c-1.632,10.029,6.066,18.696,15.788,18.696h27.093
	c2.323,0,3.486,2.809,1.844,4.452l-18.553,18.552c-5.638,5.638-7.012,14.718-2.351,21.188c5.938,8.245,17.51,8.931,24.384,2.056
	l19.158-19.158c1.643-1.643,4.452-0.479,4.452,1.844v26.238c0,7.973,5.449,15.365,13.32,16.644
	c10.029,1.632,18.696-6.066,18.696-15.788v-27.094c0-2.324,2.809-3.486,4.452-1.844l18.551,18.552
	c5.639,5.639,14.718,7.013,21.189,2.352c8.245-5.937,8.931-17.509,2.056-24.385l-19.158-19.157
	c-1.643-1.643-0.479-4.452,1.844-4.452h27.093c9.722,0,17.421-8.667,15.788-18.696C342.544,245.443,335.153,239.995,327.179,239.995
	z"/>
<g>
	<path id="SVGCleanerId_0_1_" style="fill:#FE702D;" d="M327.179,239.995h-26.238c-2.323,0-3.486-2.809-1.844-4.452l18.553-18.552
		c5.638-5.639,7.012-14.718,2.351-21.189c-5.938-8.245-17.51-8.93-24.384-2.056l-19.158,19.158
		c-1.643,1.643-4.452,0.479-4.452-1.844v-26.237c0-7.974-5.449-15.364-13.32-16.645c-10.029-1.632-18.696,6.066-18.696,15.788
		v27.094c0,2.323-2.809,3.486-4.452,1.844l-18.553-18.553c-5.639-5.639-14.717-7.012-21.187-2.352
		c-8.245,5.939-8.931,17.51-2.057,24.385l19.158,19.158c1.643,1.643,0.479,4.452-1.844,4.452H184.82
		c-7.973,0-15.365,5.449-16.645,13.32c-1.632,10.029,6.066,18.696,15.788,18.696h27.093c2.323,0,3.486,2.809,1.844,4.452
		l-18.553,18.552c-5.638,5.638-7.012,14.718-2.351,21.188c5.938,8.245,17.51,8.931,24.384,2.056l19.158-19.158
		c1.643-1.643,4.452-0.479,4.452,1.844v26.238c0,7.973,5.449,15.365,13.32,16.644c10.029,1.632,18.696-6.066,18.696-15.788v-27.094
		c0-2.324,2.809-3.486,4.452-1.844l18.551,18.552c5.639,5.639,14.718,7.013,21.189,2.352c8.245-5.937,8.931-17.509,2.056-24.385
		l-19.158-19.157c-1.643-1.643-0.479-4.452,1.844-4.452h27.093c9.722,0,17.421-8.667,15.788-18.696
		C342.544,245.443,335.153,239.995,327.179,239.995z"/>
</g>
<circle style="fill:#FFFFFF;" cx="255.996" cy="256.008" r="16.008"/>
<path d="M255.965,351.92c-1.302,0-2.611-0.105-3.919-0.318c-11.363-1.849-19.932-12.347-19.932-24.421v-13.512l-10.161,10.16
	c-4.96,4.961-11.821,7.488-18.818,6.919c-6.996-0.565-13.385-4.188-17.53-9.94c-6.728-9.344-5.364-22.826,3.173-31.364l9.555-9.554
	h-14.368c-7.018,0-13.652-3.068-18.201-8.417c-4.547-5.348-6.501-12.427-5.363-19.424c1.849-11.363,12.347-19.932,24.421-19.932
	h13.511l-10.16-10.161c-4.961-4.961-7.483-11.821-6.918-18.819c0.565-6.996,4.187-13.385,9.94-17.529
	c9.344-6.727,22.826-5.364,31.363,3.172l9.555,9.555v-14.368c0-7.018,3.068-13.652,8.417-18.201
	c5.347-4.547,12.425-6.505,19.424-5.363c11.362,1.848,19.932,12.347,19.932,24.421v13.511l10.161-10.16
	c4.96-4.961,11.818-7.482,18.819-6.918c6.996,0.564,13.385,4.187,17.529,9.939c6.727,9.344,5.363,22.826-3.173,31.364l-9.555,9.555
	h13.511c12.074,0,22.572,8.569,24.421,19.933c1.139,6.996-0.815,14.075-5.363,19.423c-4.549,5.349-11.183,8.417-18.201,8.417
	h-14.368l10.16,10.159c4.962,4.963,7.483,11.825,6.918,18.824c-0.566,6.995-4.189,13.383-9.941,17.526
	c-9.342,6.727-22.827,5.363-31.363-3.176l-9.554-9.554v14.369c0,7.018-3.068,13.652-8.417,18.201
	C267.122,349.936,261.627,351.92,255.965,351.92z M237.374,290.452c1.353,0,2.719,0.264,4.023,0.805
	c3.932,1.628,6.473,5.431,6.473,9.687v26.238c0,4.361,2.945,8.257,6.706,8.869c2.464,0.396,4.837-0.243,6.685-1.815
	c1.823-1.551,2.868-3.809,2.868-6.198v-27.094c0-4.256,2.541-8.059,6.473-9.687c3.932-1.629,8.417-0.737,11.428,2.272l18.552,18.552
	c3.084,3.086,7.92,3.755,11.013,1.531c2.025-1.459,3.248-3.593,3.443-6.01c0.193-2.386-0.666-4.723-2.355-6.412l-19.157-19.156
	c-3.009-3.01-3.901-7.496-2.272-11.428c1.629-3.932,5.431-6.473,9.687-6.473h27.093c2.389,0,4.648-1.045,6.198-2.868
	c1.57-1.848,2.215-4.222,1.815-6.684c-0.612-3.762-4.507-6.707-8.869-6.707h-26.238c-4.256,0-8.059-2.541-9.688-6.474
	c-1.628-3.933-0.734-8.419,2.276-11.428l18.55-18.551c3.084-3.084,3.755-7.923,1.529-11.014c-1.459-2.025-3.594-3.248-6.011-3.442
	c-2.385-0.192-4.721,0.666-6.41,2.354l-19.159,19.158c-3.007,3.008-7.492,3.902-11.426,2.274c-3.933-1.629-6.474-5.432-6.474-9.688
	v-26.238c0-4.361-2.945-8.257-6.706-8.869c-2.469-0.398-4.837,0.243-6.685,1.815c-1.823,1.55-2.868,3.809-2.868,6.198v27.094
	c0,4.256-2.541,8.059-6.474,9.688c-3.935,1.627-8.42,0.734-11.428-2.276l-18.551-18.55c-3.084-3.085-7.923-3.755-11.013-1.531
	c-2.025,1.459-3.248,3.595-3.443,6.012c-0.192,2.385,0.666,4.721,2.355,6.41l19.157,19.159c3.008,3.006,3.902,7.493,2.274,11.426
	c-1.629,3.933-5.432,6.474-9.688,6.474H184.82c-4.361,0-8.257,2.945-8.869,6.706c-0.401,2.464,0.244,4.837,1.814,6.685
	c1.55,1.823,3.809,2.868,6.198,2.868h27.093c4.256,0,8.058,2.541,9.687,6.473c1.629,3.932,0.736,8.418-2.272,11.428l-18.552,18.552
	c-3.085,3.084-3.756,7.921-1.529,11.013c1.459,2.025,3.594,3.248,6.011,3.442c2.378,0.199,4.72-0.666,6.41-2.354l19.159-19.158
	C231.981,291.517,234.651,290.452,237.374,290.452z"/>
<path d="M432.087,275.522c-10.764,0-19.521-8.757-19.521-19.52s8.757-19.52,19.521-19.52c10.763,0,19.52,8.757,19.52,19.52
	S442.85,275.522,432.087,275.522z M432.087,252.24c-2.076,0-3.764,1.687-3.764,3.763c0,2.076,1.688,3.763,3.764,3.763
	s3.763-1.687,3.763-3.763C435.849,253.927,434.162,252.24,432.087,252.24z"/>
<path d="M79.913,275.522c-10.763,0-19.52-8.757-19.52-19.52s8.757-19.52,19.52-19.52c10.764,0,19.521,8.757,19.521,19.52
	S90.677,275.522,79.913,275.522z M79.913,252.24c-2.076,0-3.763,1.687-3.763,3.763c0,2.076,1.687,3.763,3.763,3.763
	c2.076,0,3.764-1.687,3.764-3.763C83.677,253.927,81.989,252.24,79.913,252.24z"/>
<path d="M512,208.104h-26.656c-0.109-0.162-0.204-0.33-0.318-0.49c-3.382-4.694-8.599-7.652-14.316-8.115
	c-5.72-0.455-11.325,1.598-15.382,5.654l-3.723,3.723v-4.641c0-9.822-7.007-18.368-16.301-19.882
	c-5.707-0.93-11.492,0.671-15.863,4.386c-4.37,3.718-6.877,9.139-6.877,14.873v5.264l-3.282-3.283
	c-6.946-6.944-17.944-8.034-25.586-2.532c-1.797,1.294-3.334,2.861-4.58,4.62h-48.659c0.702-5.766-0.601-11.674-4.065-16.485
	c-4.143-5.751-10.532-9.375-17.529-9.939c-7.001-0.564-13.859,1.957-18.819,6.918l-10.161,10.16v-13.511
	c0-12.074-8.57-22.573-19.932-24.421c-6.999-1.143-14.077,0.815-19.424,5.363c-5.349,4.549-8.417,11.183-8.417,18.201v14.368
	l-9.555-9.555c-8.537-8.537-22.021-9.901-31.363-3.172c-5.753,4.143-9.375,10.532-9.94,17.529c-0.123,1.528-0.091,3.048,0.074,4.545
	h-48.448c-1.246-1.757-2.783-3.325-4.58-4.62c-7.64-5.502-18.639-4.412-25.583,2.532l-3.283,3.283v-5.264
	c0-5.734-2.507-11.156-6.877-14.873c-4.371-3.715-10.149-5.315-15.866-4.386c-9.291,1.513-16.298,10.06-16.298,19.882v4.641
	l-3.723-3.723c-4.056-4.055-9.658-6.111-15.382-5.654c-5.716,0.462-10.933,3.42-14.316,8.115c-0.115,0.159-0.209,0.328-0.317,0.49H0
	v95.796h26.677c1.293,1.927,2.914,3.647,4.852,5.043c7.64,5.499,18.639,4.41,25.583-2.535l3.282-3.282v5.265
	c0,5.735,2.507,11.156,6.877,14.873c3.554,3.023,8.041,4.644,12.668,4.644c1.062,0,2.129-0.085,3.197-0.258
	c9.291-1.513,16.299-10.06,16.299-19.882v-4.641l3.721,3.722c4.056,4.054,9.675,6.116,15.382,5.654
	c5.717-0.461,10.935-3.419,14.318-8.115c0.016-0.021,0.027-0.044,0.042-0.066h48.642c-0.701,5.766,0.602,11.673,4.066,16.484
	c4.144,5.752,10.533,9.375,17.53,9.94c6.997,0.568,13.858-1.958,18.818-6.919l10.161-10.16v13.512
	c0,12.074,8.569,22.572,19.932,24.421c1.308,0.213,2.618,0.318,3.919,0.318c5.663,0,11.157-1.984,15.505-5.681
	c5.349-4.549,8.417-11.183,8.417-18.201v-14.369l9.554,9.554c8.536,8.538,22.022,9.903,31.363,3.176
	c5.752-4.142,9.375-10.53,9.941-17.526c0.124-1.529,0.091-3.051-0.074-4.548h48.431c0.015,0.021,0.027,0.044,0.042,0.066
	c3.382,4.696,8.601,7.653,14.318,8.115c5.72,0.466,11.325-1.599,15.382-5.654l3.721-3.722v4.641c0,9.822,7.008,18.368,16.302,19.882
	c1.065,0.173,2.132,0.258,3.193,0.258c4.625,0,9.115-1.621,12.668-4.644c4.37-3.718,6.877-9.138,6.877-14.873v-5.265l3.281,3.282
	c6.946,6.945,17.942,8.034,25.586,2.534c1.937-1.395,3.558-3.116,4.85-5.042h26.677v-95.797H512z M482.495,233.2
	c2.658-2.658,4.45-5.91,5.351-9.34h8.397v16.786c-3.455-2.604-7.777-4.165-12.391-4.165h-4.64L482.495,233.2z M376.052,223.438
	c0.822,3.491,2.589,6.726,5.186,9.323l3.723,3.722h-4.641c-8.299,0-15.669,5.011-18.673,12.166h-10.905
	c-3.187-9.626-12.73-16.533-23.564-16.533h-13.511l8.678-8.678H376.052z M130.762,232.761c2.597-2.597,4.364-5.832,5.186-9.323
	h53.709l8.677,8.678h-13.511c-10.833,0-20.377,6.908-23.564,16.533h-10.904c-3.004-7.156-10.375-12.166-18.674-12.166h-4.641
	L130.762,232.761z M15.757,223.861h8.397c0.901,3.43,2.693,6.682,5.351,9.341l3.283,3.282h-4.64c-4.615,0-8.936,1.561-12.391,4.164
	V223.861z M29.065,279.245c-2.491,2.492-4.221,5.571-5.083,8.899h-8.225v-16.567c3.358,2.539,7.474,3.944,11.767,3.944h5.264
	L29.065,279.245z M120.068,295.179c-0.88,1.222-2.008,1.555-2.801,1.619c-0.644,0.05-1.899-0.019-2.97-1.09l-13.933-13.933
	c-2.807-2.805-6.99-3.637-10.653-2.119c-3.666,1.519-6.035,5.063-6.035,9.032v19.082c0,2.111-1.379,4.054-3.073,4.33
	c-1.488,0.237-2.519-0.321-3.125-0.836c-0.497-0.422-1.33-1.357-1.33-2.871v-19.704c0-3.968-2.369-7.512-6.035-9.032
	c-1.216-0.504-2.49-0.749-3.75-0.749c-2.539,0-5.027,0.993-6.9,2.868L45.97,295.266c-1.494,1.495-3.843,1.891-5.233,0.891
	c-1.222-0.88-1.555-2.008-1.619-2.801c-0.053-0.65,0.02-1.9,1.089-2.97l13.933-13.933c2.806-2.807,3.638-6.988,2.119-10.655
	c-1.518-3.665-5.062-6.034-9.03-6.034H27.524c-1.514,0-2.449-0.833-2.871-1.33c-0.514-0.604-1.076-1.638-0.835-3.123
	c0.276-1.694,2.218-3.074,4.33-3.074h19.082c3.967,0,7.512-2.369,9.031-6.034c1.518-3.666,0.686-7.848-2.12-10.655l-13.493-13.492
	c-1.493-1.494-1.892-3.842-0.888-5.234c0.879-1.222,2.007-1.555,2.799-1.619c0.645-0.05,1.899,0.019,2.971,1.09l13.931,13.93
	c2.806,2.807,6.983,3.64,10.654,2.122c3.666-1.518,6.036-5.062,6.036-9.032v-19.082c0-2.111,1.379-4.054,3.072-4.33
	c1.486-0.24,2.519,0.321,3.126,0.837c0.497,0.421,1.33,1.356,1.33,2.87v19.704c0,3.969,2.37,7.513,6.036,9.032
	c3.67,1.52,7.85,0.684,10.651-2.12l13.495-13.493c1.494-1.495,3.843-1.891,5.232-0.889c1.222,0.88,1.555,2.008,1.619,2.801
	c0.053,0.649-0.02,1.9-1.09,2.97l-13.933,13.933c-2.806,2.807-3.638,6.988-2.119,10.655c1.518,3.665,5.062,6.034,9.031,6.034h19.082
	c2.112,0,4.054,1.379,4.33,3.072c0.242,1.486-0.322,2.52-0.836,3.125c-0.422,0.497-1.357,1.33-2.87,1.33h-19.707
	c-3.967,0-7.512,2.369-9.031,6.035c-1.518,3.665-0.687,7.848,2.119,10.654l13.493,13.493
	C120.673,291.439,121.071,293.786,120.068,295.179z M135.77,288.567c-0.862-3.584-2.682-6.996-5.449-9.763l-3.283-3.282h5.265
	c5.734,0,11.155-2.507,14.872-6.877c1.104-1.298,1.996-2.731,2.715-4.239h11.724c0.957,2.552,2.345,4.946,4.147,7.066
	c4.55,5.349,11.183,8.417,18.201,8.417h14.368l-8.679,8.678H135.77V288.567z M315.04,307.602c-0.195,2.417-1.419,4.551-3.443,6.01
	c-3.093,2.225-7.929,1.555-11.013-1.531l-18.552-18.552c-3.011-3.01-7.496-3.901-11.428-2.272c-3.932,1.628-6.473,5.431-6.473,9.687
	v27.094c0,2.389-1.045,4.648-2.868,6.198c-1.848,1.571-4.222,2.211-6.685,1.815c-3.761-0.612-6.706-4.508-6.706-8.869v-26.238
	c0-4.256-2.541-8.059-6.473-9.687c-1.305-0.541-2.67-0.805-4.023-0.805c-2.724,0-5.393,1.066-7.404,3.077l-19.159,19.158
	c-1.689,1.688-4.032,2.553-6.41,2.354c-2.417-0.194-4.552-1.418-6.011-3.442c-2.227-3.091-1.555-7.93,1.529-11.013l18.552-18.552
	c3.008-3.01,3.901-7.496,2.272-11.428c-1.629-3.932-5.431-6.473-9.687-6.473h-27.093c-2.389,0-4.648-1.045-6.198-2.868
	c-1.57-1.848-2.215-4.222-1.814-6.685c0.612-3.761,4.507-6.706,8.869-6.706h26.238c4.256,0,8.059-2.541,9.688-6.474
	c1.628-3.933,0.734-8.419-2.274-11.426l-19.157-19.159c-1.689-1.688-2.547-4.024-2.355-6.41c0.195-2.417,1.419-4.553,3.443-6.012
	c3.09-2.225,7.93-1.555,11.013,1.531l18.551,18.55c3.007,3.011,7.493,3.904,11.428,2.276c3.933-1.629,6.474-5.432,6.474-9.688
	v-27.094c0-2.389,1.045-4.648,2.868-6.198c1.848-1.571,4.218-2.212,6.685-1.815c3.761,0.612,6.706,4.508,6.706,8.869v26.238
	c0,4.256,2.541,8.059,6.474,9.688c3.934,1.628,8.418,0.734,11.426-2.274l19.159-19.158c1.688-1.688,4.024-2.546,6.41-2.354
	c2.417,0.195,4.552,1.418,6.011,3.442c2.226,3.091,1.554,7.931-1.529,11.014l-18.55,18.551c-3.011,3.008-3.905,7.495-2.276,11.428
	c1.629,3.933,5.432,6.474,9.688,6.474h26.238c4.361,0,8.257,2.945,8.869,6.707c0.401,2.463-0.244,4.837-1.815,6.684
	c-1.551,1.823-3.809,2.868-6.198,2.868h-27.093c-4.256,0-8.058,2.541-9.687,6.473c-1.629,3.932-0.736,8.418,2.272,11.428
	l19.157,19.156C314.374,302.879,315.233,305.216,315.04,307.602z M381.678,278.804c-2.766,2.767-4.586,6.179-5.449,9.763h-53.884
	l-8.679-8.678h14.368c7.018,0,13.652-3.068,18.201-8.417c1.803-2.12,3.19-4.515,4.147-7.066h11.724
	c0.72,1.508,1.611,2.941,2.715,4.239c3.718,4.37,9.138,6.877,14.872,6.877h5.265L381.678,278.804z M472.882,293.356
	c-0.064,0.792-0.397,1.92-1.617,2.799c-1.393,1.003-3.743,0.605-5.237-0.89l-13.492-13.492c-2.807-2.805-6.989-3.637-10.653-2.119
	c-3.666,1.519-6.035,5.063-6.035,9.032v19.704c0,1.514-0.833,2.449-1.33,2.871c-0.605,0.514-1.643,1.08-3.122,0.836
	c-1.695-0.276-3.076-2.219-3.076-4.33v-19.08c0-3.968-2.369-7.512-6.035-9.032c-1.216-0.504-2.49-0.749-3.75-0.749
	c-2.539,0-5.027,0.993-6.901,2.868l-13.933,13.933c-1.071,1.073-2.327,1.142-2.97,1.09c-0.792-0.064-1.92-0.397-2.8-1.619
	c-1.003-1.392-0.605-3.74,0.889-5.232l13.493-13.493c2.806-2.806,3.637-6.988,2.119-10.654s-5.063-6.035-9.031-6.035h-19.705
	c-1.513,0-2.448-0.833-2.87-1.33c-0.514-0.604-1.077-1.639-0.836-3.123c0.276-1.694,2.217-3.074,4.33-3.074h19.082
	c3.968,0,7.512-2.369,9.031-6.034c1.519-3.666,0.687-7.848-2.119-10.655l-13.933-13.933c-1.071-1.07-1.143-2.32-1.09-2.97
	c0.064-0.792,0.397-1.92,1.618-2.801c1.393-1.002,3.741-0.605,5.234,0.889l13.491,13.49c2.806,2.807,6.984,3.64,10.654,2.122
	c3.666-1.518,6.036-5.062,6.036-9.032v-19.704c0-1.514,0.833-2.449,1.33-2.87c0.605-0.516,1.636-1.082,3.123-0.837
	c1.695,0.276,3.075,2.219,3.075,4.33v19.082c0,3.969,2.37,7.513,6.036,9.032c3.671,1.52,7.85,0.684,10.651-2.12l13.934-13.933
	c1.071-1.071,2.327-1.141,2.971-1.09c0.792,0.064,1.92,0.397,2.799,1.619c1.004,1.393,0.605,3.741-0.888,5.233l-13.493,13.493
	c-2.806,2.807-3.638,6.988-2.12,10.655c1.518,3.665,5.063,6.034,9.031,6.034h19.082c2.112,0,4.054,1.379,4.33,3.074
	c0.241,1.485-0.321,2.518-0.835,3.123c-0.422,0.497-1.357,1.33-2.871,1.33h-19.705c-3.967,0-7.511,2.369-9.03,6.034
	c-1.519,3.666-0.687,7.848,2.119,10.655l13.933,13.932C472.862,291.456,472.935,292.705,472.882,293.356z M488.019,288.143
	c-0.863-3.329-2.592-6.408-5.083-8.901l-3.723-3.722h5.264c4.293,0,8.409-1.406,11.767-3.946v16.567h-8.225V288.143z"/>
<path d="M287.514,264.406v-15.757h-8.79c-0.336-1.039-0.738-2.047-1.209-3.019l6.696-6.695l-11.142-11.142l-6.696,6.696
	c-0.971-0.47-1.98-0.872-3.019-1.209v-8.79h-15.757v9.158c-0.67,0.253-1.328,0.532-1.969,0.841l-6.696-6.696l-11.142,11.142
	l6.696,6.695c-0.47,0.971-0.872,1.98-1.209,3.019h-8.79v15.757h9.158c0.253,0.67,0.532,1.328,0.841,1.969l-6.696,6.696
	l11.142,11.142l6.696-6.696c0.64,0.31,1.297,0.589,1.969,0.841v9.158h15.757v-8.79c1.038-0.337,2.047-0.738,3.019-1.209l6.696,6.696
	l11.142-11.142l-6.696-6.696c0.31-0.64,0.589-1.298,0.841-1.969L287.514,264.406L287.514,264.406z M264.129,256.003
	c0,4.483-3.647,8.129-8.129,8.129c-4.483,0-8.129-3.647-8.129-8.129c0-4.483,3.647-8.129,8.129-8.129
	C260.483,247.872,264.129,251.519,264.129,256.003z"/>
</svg>