<?xml version="1.0" encoding="iso-8859-1"?>
<!-- Uploaded to: SVG Repo, www.svgrepo.com, Generator: SVG Repo Mixer Tools -->
<svg height="800px" width="800px" version="1.1" id="Layer_1" xmlns="http://www.w3.org/2000/svg" xmlns:xlink="http://www.w3.org/1999/xlink" 
	 viewBox="0 0 512.001 512.001" xml:space="preserve">
<path style="fill:#2F9B0B;" d="M465.131,396.451v15.644c0,30.85-24.997,55.847-55.835,55.847H102.711
	c-30.85,0-55.847-24.997-55.847-55.847v-15.644H465.131z"/>
<path style="fill:#31AF0E;" d="M480.314,350.82c12.605,0,22.821,10.216,22.821,22.821c0,6.291-2.554,12.002-6.681,16.129
	s-9.838,6.681-16.14,6.681h-15.183H46.864H31.681c-12.605,0-22.809-10.216-22.809-22.809c0-6.302,2.554-12.014,6.681-16.14
	c4.127-4.127,9.826-6.681,16.129-6.681h28.142h98.084h98.096h98.084h98.096H480.314z"/>
<path style="fill:#F95428;" d="M256.004,44.058c27.078,0,49.036,21.958,49.036,49.048c0,18.624-10.382,34.823-25.659,43.124
	c-6.953,3.784-14.911,5.924-23.377,5.924s-16.436-2.14-23.377-5.924c-15.289-8.301-25.671-24.5-25.671-43.124
	C206.956,66.016,228.914,44.058,256.004,44.058z"/>
<g>
	<path style="fill:#F7B239;" d="M305.04,130.318c27.09,0,49.048,21.958,49.048,49.048c0,18.624-10.382,34.823-25.671,43.124
		c-6.953,3.784-14.911,5.924-23.377,5.924c-8.88,0-17.216-2.365-24.406-6.492c-14.721-8.466-24.63-24.358-24.63-42.556
		c0-18.624,10.382-34.823,25.659-43.124C288.615,132.458,296.573,130.318,305.04,130.318z"/>
	<path style="fill:#F7B239;" d="M256.004,179.366c0,18.624-10.382,34.823-25.671,43.124c-6.941,3.784-14.911,5.924-23.377,5.924
		c-8.892,0-17.228-2.365-24.418-6.492c-14.721-8.466-24.63-24.358-24.63-42.556c0-27.09,21.958-49.048,49.048-49.048
		c8.466,0,16.436,2.14,23.377,5.924C245.622,144.542,256.004,160.742,256.004,179.366z"/>
</g>
<g>
	<path style="fill:#F95428;" d="M354.088,216.211c27.09,0,49.048,21.958,49.048,49.048c0,18.198-9.909,34.09-24.63,42.556
		c-7.189,4.127-15.537,6.492-24.418,6.492c-8.88,0-17.228-2.365-24.418-6.492c-14.721-8.466-24.63-24.358-24.63-42.556
		s9.909-34.09,24.63-42.556C336.859,218.576,345.207,216.211,354.088,216.211z"/>
	<path style="fill:#F95428;" d="M305.04,265.259c0,18.198-9.909,34.09-24.63,42.556c-7.189,4.127-15.526,6.492-24.406,6.492
		c-8.892,0-17.228-2.365-24.418-6.492c-14.721-8.466-24.63-24.358-24.63-42.556s9.909-34.09,24.63-42.556
		c7.189-4.127,15.526-6.492,24.418-6.492c8.466,0,16.424,2.14,23.377,5.924C294.658,230.435,305.04,246.635,305.04,265.259z"/>
	<path style="fill:#F95428;" d="M206.956,265.259c0,18.198-9.909,34.09-24.63,42.556c-7.189,4.127-15.526,6.492-24.418,6.492
		s-17.228-2.365-24.418-6.492c-14.721-8.466-24.63-24.358-24.63-42.556c0-27.09,21.958-49.048,49.048-49.048
		c8.466,0,16.436,2.14,23.377,5.924C196.574,230.435,206.956,246.635,206.956,265.259z"/>
</g>
<g>
	<path style="fill:#F7B239;" d="M452.184,350.82h-98.096c0-18.198,9.909-34.078,24.63-42.544c7.189-4.127,15.537-6.492,24.418-6.492
		C430.225,301.784,452.184,323.742,452.184,350.82z"/>
	<path style="fill:#F7B239;" d="M354.088,350.82h-98.084c0-18.198,9.909-34.078,24.63-42.544c7.189-4.127,15.526-6.492,24.406-6.492
		c8.88,0,17.228,2.365,24.418,6.492C344.179,316.742,354.088,332.623,354.088,350.82z"/>
	<path style="fill:#F7B239;" d="M256.004,350.82h-98.096c0-18.198,9.909-34.078,24.63-42.544c7.189-4.127,15.526-6.492,24.418-6.492
		c8.892,0,17.228,2.365,24.418,6.492C246.095,316.742,256.004,332.623,256.004,350.82z"/>
	<path style="fill:#F7B239;" d="M157.908,350.82H59.824c0-27.078,21.958-49.036,49.036-49.036c8.892,0,17.228,2.365,24.418,6.492
		C147.999,316.742,157.908,332.623,157.908,350.82z"/>
</g>
<path style="fill:#333333;" d="M480.319,341.957H460.37c-4.192-27.16-27.325-48.135-55.434-48.999
	c4.504-8.233,7.069-17.673,7.069-27.701c0-31.392-25.11-57.011-56.296-57.873c4.614-8.309,7.252-17.86,7.252-28.019
	c0-31.461-25.223-57.125-56.504-57.877c4.74-8.394,7.46-18.074,7.46-28.381c0-31.933-25.981-57.914-57.914-57.914
	s-57.914,25.98-57.914,57.914c0,10.307,2.72,19.987,7.46,28.381c-31.284,0.752-56.506,26.416-56.506,57.877
	c0,10.16,2.638,19.71,7.252,28.019c-31.187,0.862-56.296,26.481-56.296,57.873c0,10.028,2.565,19.468,7.069,27.701
	c-28.108,0.864-51.243,21.84-55.434,48.999H31.68C14.212,341.957,0,356.169,0,373.638c0,17.468,14.212,31.68,31.68,31.68h6.314v6.78
	c0,35.682,29.029,64.711,64.712,64.711h306.589c35.682,0,64.711-29.029,64.711-64.711v-6.78h6.314
	c17.468,0,31.681-14.212,31.681-31.68C512,356.169,497.787,341.957,480.319,341.957z M442.314,341.957h-78.356
	c4.05-17.899,20.072-31.309,39.178-31.309S438.264,324.058,442.314,341.957z M256,225.08c22.153,0,40.177,18.023,40.177,40.177
	S278.154,305.435,256,305.435s-40.177-18.024-40.177-40.177S233.847,225.08,256,225.08z M206.954,310.649
	c19.106,0,35.128,13.409,39.178,31.309h-78.357C171.826,324.058,187.85,310.649,206.954,310.649z M305.046,310.649
	c19.106,0,35.128,13.409,39.178,31.309h-78.356C269.917,324.058,285.94,310.649,305.046,310.649z M394.267,265.257
	c0,22.153-18.023,40.177-40.177,40.177s-40.177-18.024-40.177-40.177s18.023-40.177,40.177-40.177S394.267,243.103,394.267,265.257z
	 M345.222,179.366c0,22.153-18.023,40.177-40.177,40.177c-22.154,0-40.176-18.024-40.176-40.177s18.023-40.177,40.177-40.177
	C327.2,139.188,345.222,157.212,345.222,179.366z M256,52.93c22.153,0,40.177,18.023,40.177,40.177S278.154,133.284,256,133.284
	s-40.177-18.024-40.177-40.177S233.847,52.93,256,52.93z M206.954,139.188c22.153,0,40.177,18.023,40.177,40.177
	s-18.023,40.177-40.177,40.177s-40.178-18.023-40.178-40.177S184.801,139.188,206.954,139.188z M157.909,225.08
	c22.153,0,40.178,18.023,40.178,40.177s-18.024,40.177-40.178,40.177s-40.177-18.024-40.177-40.177S135.756,225.08,157.909,225.08z
	 M108.863,310.649c19.106,0,35.128,13.409,39.178,31.309H69.685C73.735,324.058,89.758,310.649,108.863,310.649z M456.268,412.099
	c0,25.902-21.072,46.974-46.974,46.974H102.705c-25.902,0-46.975-21.072-46.975-46.974v-6.78h400.537v6.78H456.268z
	 M480.319,387.582H31.68c-7.688,0-13.943-6.255-13.943-13.943c0-7.688,6.255-13.943,13.943-13.943h448.639
	c7.689,0,13.945,6.255,13.945,13.943C494.263,381.326,488.008,387.582,480.319,387.582z"/>
</svg>